<?xml version="1.0" encoding="utf-8"?>
<!-- Generator: Adobe Illustrator 23.0.1, SVG Export Plug-In . SVG Version: 6.00 Build 0)  -->
<svg version="1.1" id="Layer_1" xmlns="http://www.w3.org/2000/svg" xmlns:xlink="http://www.w3.org/1999/xlink" x="0px" y="0px"
	 viewBox="0 0 24 24" style="enable-background:new 0 0 24 24;" xml:space="preserve">
<style type="text/css">
	.st0{fill:none;}
	.st1{fill:#FFFFFF;stroke:#000000;stroke-miterlimit:10;}
	.st2{font-family:'ArialMT';}
	.st3{font-size:9.8087px;}
</style>
<path class="st0" d="M0,0h24v24H0V0z"/>
<path d="M17.7,7.7L12,2h-1v7.6L6.4,5L5,6.4l5.6,5.6L5,17.6L6.4,19l4.6-4.6V22h1l5.7-5.7L13.4,12C13.4,12,17.7,7.7,17.7,7.7z M13,5.8
	l1.9,1.9L13,9.6V5.8z M14.9,16.3L13,18.2v-3.8C13,14.4,14.9,16.3,14.9,16.3z"/>
<circle class="st1" cx="18" cy="18.4" r="3.6"/>
<text transform="matrix(0.9986 0 0 1 15.2104 21.9951)" class="st2 st3">+</text>
</svg>
