<?xml version="1.0" encoding="utf-8"?>
<!-- Generator: Adobe Illustrator 23.0.1, SVG Export Plug-In . SVG Version: 6.00 Build 0)  -->
<svg version="1.1" id="Layer_1" xmlns="http://www.w3.org/2000/svg" xmlns:xlink="http://www.w3.org/1999/xlink" x="0px" y="0px"
	 viewBox="0 0 96 96" style="enable-background:new 0 0 96 96;" xml:space="preserve">
<style type="text/css">
	.st0{fill:#153554;}
	.st1{fill:#161616;}
</style>
<path class="st0" d="M78.4,48.8c-0.1-0.8,0.5-1.5,1.3-1.6s1.7,0.4,1.8,1.2s-0.5,1.5-1.3,1.6c0,0,0,0,0,0c-0.1,0-0.3,0-0.4,0
	c0.1,0,0.2,0,0.3,0c0.8-0.1,1.4-0.8,1.2-1.5c-0.1-0.7-0.8-1.2-1.6-1.1C78.9,47.5,78.3,48.1,78.4,48.8L78.4,48.8L78.4,48.8z
	 M35.9,47.3c-4-0.9-10.4-10-4.7-11.3c1.6-0.4,6.3,0.6,11,0.2s12.7-1.6,20.8-0.4c9.4,1.4,20.3,7.7,21.4,9.2c0,0,2.5,1,3.6,1.7
	s1.1,1.4,1.1,1.4s1-0.3,1.1,0.5c0.3,2-1.2,4.2-3.2,5.9c-3.6,3.1-2.2,2.7-5.2,4.6c-3.1,2-10.1,5.6-11.4,6.6c-1.4,1-3.9,6.2-6.5,8.4
	c-1.7,1.4-4.1,2.6-4.8,2.6c-0.8-0.1-2.1-2.7-2-3.9c0.1-1.2,0.5-0.8,0.8-2.3c0.3-1.5,2.5-3.3,1.7-3.2c-0.7,0.1-3.1,0.2-4.4,1
	c-3.8,2.1-7.9,3.6-12.1,4.5c-2.2,0.4-4.6,0.3-6.3-1.3c-2.1-2-4.2-10.3,0.4-10.5c0,0,2-0.4-2.9-0.4c-3.2,0-6.7-0.1-8.6,0.1
	c-1.8,0.2-7.5,5.1-12.5,6.9c-2.7,1-7.1-8.7-1.4-12c0,0-7.5-7.2-6.1-13.8c0.3-1.6,5.3-0.3,16.5,7C25.5,51.1,39.5,48.1,35.9,47.3
	L35.9,47.3z M78,48.8c0.2,1,1.2,1.7,2.3,1.6c1.1-0.1,1.9-1.1,1.7-2.1c-0.2-1-1.2-1.7-2.3-1.6C78.6,46.9,77.8,47.8,78,48.8L78,48.8z"
	/>
<g id="XMLID_2_">
	<path id="XMLID_6_" class="st1" d="M82,34.9l-0.1,4.5c0,0.7-0.5,1.2-1.5,1.8c-1,0.5-2.2,0.9-3.8,1.1c-1.6,0.2-3.2,0.2-5,0.1
		c-1.8-0.1-3.4-0.4-5-0.8c-1.5-0.4-2.7-1-3.5-1.6c-0.9-0.6-1.2-1.3-1.1-2l0.6-4.5l8.7,3.2c0.3,0.1,0.4,0.2,0.7,0.2s0.5,0,0.7-0.1
		L82,34.9z M90.6,30.9c0,0.2-0.2,0.4-0.4,0.4l-17.9,3.8c-0.1,0-0.1,0-0.1,0c-0.1,0-0.1,0-0.1,0l-9.9-3.7c-0.5,0.3-0.9,0.8-1.2,1.5
		c-0.3,0.7-0.6,1.6-0.7,2.5c0.6,0.4,0.9,0.9,0.8,1.6c-0.1,0.7-0.4,1.1-1,1.5l0.4,6.2c0,0.1,0,0.2-0.2,0.4c-0.1,0.1-0.2,0.2-0.4,0.2
		l-3-0.2c-0.1,0-0.3-0.1-0.4-0.2c-0.1-0.1-0.1-0.2-0.1-0.4l1.4-6.1c-0.6-0.4-0.8-1-0.8-1.6c0.1-0.7,0.4-1.2,1.2-1.5
		c0.3-2,1-3.5,1.9-4.6l-5-1.9c-0.3-0.1-0.3-0.3-0.3-0.4s0.2-0.4,0.4-0.4L73,24.1c0.1,0,0.1,0,0.1,0c0.1,0,0.1,0,0.1,0l17.1,6.3
		C90.5,30.5,90.6,30.7,90.6,30.9z"/>
</g>
</svg>
